<?xml version="1.0" encoding="UTF-8" standalone="no"?><!DOCTYPE svg PUBLIC "-//W3C//DTD SVG 1.1//EN" "http://www.w3.org/Graphics/SVG/1.1/DTD/svg11.dtd"><svg width="100%" height="100%" viewBox="0 0 87 101" version="1.1" xmlns="http://www.w3.org/2000/svg" xmlns:xlink="http://www.w3.org/1999/xlink" xml:space="preserve" xmlns:serif="http://www.serif.com/" style="fill-rule:evenodd;clip-rule:evenodd;stroke-linejoin:round;stroke-miterlimit:2;"><path d="M40.106,79.69c-6.668,0 -10.913,-4.067 -10.913,-9.235c0,-22.093 57.764,-26.51 57.764,-49.974c0,-14.314 -16.486,-20.481 -37.528,-20.481c-12.802,0 -27.277,2.384 -40.717,6.645l0,27.988c19.809,-14.508 41.818,-20.72 55.998,-20.72c8.912,0 14.963,2.5 14.963,6.984c0,18.464 -79.673,15.536 -79.673,55.436c0,15.297 10.457,24.06 25.17,24.06c22.254,0 39.084,-21.748 51.675,-48.258l2.55,0.917c-6.635,16.203 -20.353,33.967 -23.031,45.385l28.649,0l0,-59.076l-6.612,0c-9.607,20.987 -23.682,40.328 -38.295,40.328l0.001,0Z" style="fill-rule:nonzero;"/></svg>