<?xml version="1.0" encoding="UTF-8" standalone="no"?><!DOCTYPE svg PUBLIC "-//W3C//DTD SVG 1.1//EN" "http://www.w3.org/Graphics/SVG/1.1/DTD/svg11.dtd"><svg width="100%" height="100%" viewBox="0 0 101 100" version="1.1" xmlns="http://www.w3.org/2000/svg" xmlns:xlink="http://www.w3.org/1999/xlink" xml:space="preserve" xmlns:serif="http://www.serif.com/" style="fill-rule:evenodd;clip-rule:evenodd;stroke-linejoin:round;stroke-miterlimit:2;"><path d="M71.191,99.449c1.581,0.616 3.384,0.576 4.98,-0.191l20.669,-9.946c2.172,-1.045 3.553,-3.243 3.553,-5.655l0,-67.438c0,-2.412 -1.381,-4.61 -3.553,-5.655l-20.669,-9.946c-2.094,-1.008 -4.546,-0.761 -6.384,0.575c-0.263,0.191 -0.513,0.404 -0.747,0.639l-39.569,36.1l-17.235,-13.083c-1.604,-1.218 -3.849,-1.118 -5.339,0.237l-5.528,5.029c-1.823,1.658 -1.825,4.526 -0.005,6.186l14.947,13.637l-14.947,13.637c-1.82,1.661 -1.818,4.528 0.005,6.186l5.528,5.029c1.49,1.356 3.734,1.455 5.339,0.237l17.235,-13.083l39.569,36.1c0.626,0.626 1.361,1.098 2.151,1.406Zm4.119,-72.302l-30.024,22.79l30.024,22.791l0,-45.581Z"/></svg>